<svg width="770" height="400" viewBox="0 0 770 400" xmlns="http://www.w3.org/2000/svg"><g transform="translate(50,20)"><rect width="136.65338645418325" height="285.08064516129036" fill="#6200FF" x="2.788844621513931" y="64.91935483870967"></rect><rect width="136.65338645418325" height="304.8387096774194" fill="#6200FF" x="142.23107569721114" y="45.161290322580605"></rect><rect width="136.65338645418325" height="307.66129032258067" fill="#6200FF" x="281.67330677290835" y="42.33870967741932"></rect><rect width="136.65338645418325" height="310.48387096774195" fill="#6200FF" x="421.1155378486055" y="39.51612903225803"></rect><rect width="136.65338645418325" height="350" fill="#6200FF" x="560.5577689243028" y="0"></rect><g transform="translate(0,350)" fill="none" font-size="10" font-family="sans-serif" text-anchor="middle"><path class="domain" stroke="currentColor" d="M0.5,6V0.5H700.5V6"></path><g class="tick" opacity="1" transform="translate(71.11553784860556,0)"><line stroke="currentColor" y2="6"></line><text fill="currentColor" y="9" dy="0.71em">vanillajs-1</text></g><g class="tick" opacity="1" transform="translate(210.55776892430276,0)"><line stroke="currentColor" y2="6"></line><text fill="currentColor" y="9" dy="0.71em">svelte-v5.0.0-next.64</text></g><g class="tick" opacity="1" transform="translate(350,0)"><line stroke="currentColor" y2="6"></line><text fill="currentColor" y="9" dy="0.71em">inferno-v8.2.2</text></g><g class="tick" opacity="1" transform="translate(489.4422310756971,0)"><line stroke="currentColor" y2="6"></line><text fill="currentColor" y="9" dy="0.71em">cample-v3.2.0-alpha.12</text></g><g class="tick" opacity="1" transform="translate(628.8844621513944,0)"><line stroke="currentColor" y2="6"></line><text fill="currentColor" y="9" dy="0.71em">vue-v3.4.18</text></g></g><g fill="none" font-size="10" font-family="sans-serif" text-anchor="end"><path class="domain" stroke="currentColor" d="M-6,350.5H0.5V0.5H-6"></path><g class="tick" opacity="1" transform="translate(0,350.5)"><line stroke="currentColor" x2="-6"></line><text fill="currentColor" x="-9" dy="0.32em">0.0</text></g><g class="tick" opacity="1" transform="translate(0,322.2741935483871)"><line stroke="currentColor" x2="-6"></line><text fill="currentColor" x="-9" dy="0.32em">0.1</text></g><g class="tick" opacity="1" transform="translate(0,294.04838709677415)"><line stroke="currentColor" x2="-6"></line><text fill="currentColor" x="-9" dy="0.32em">0.2</text></g><g class="tick" opacity="1" transform="translate(0,265.8225806451613)"><line stroke="currentColor" x2="-6"></line><text fill="currentColor" x="-9" dy="0.32em">0.3</text></g><g class="tick" opacity="1" transform="translate(0,237.59677419354838)"><line stroke="currentColor" x2="-6"></line><text fill="currentColor" x="-9" dy="0.32em">0.4</text></g><g class="tick" opacity="1" transform="translate(0,209.37096774193546)"><line stroke="currentColor" x2="-6"></line><text fill="currentColor" x="-9" dy="0.32em">0.5</text></g><g class="tick" opacity="1" transform="translate(0,181.14516129032256)"><line stroke="currentColor" x2="-6"></line><text fill="currentColor" x="-9" dy="0.32em">0.6</text></g><g class="tick" opacity="1" transform="translate(0,152.9193548387097)"><line stroke="currentColor" x2="-6"></line><text fill="currentColor" x="-9" dy="0.32em">0.7</text></g><g class="tick" opacity="1" transform="translate(0,124.69354838709674)"><line stroke="currentColor" x2="-6"></line><text fill="currentColor" x="-9" dy="0.32em">0.8</text></g><g class="tick" opacity="1" transform="translate(0,96.46774193548386)"><line stroke="currentColor" x2="-6"></line><text fill="currentColor" x="-9" dy="0.32em">0.9</text></g><g class="tick" opacity="1" transform="translate(0,68.24193548387095)"><line stroke="currentColor" x2="-6"></line><text fill="currentColor" x="-9" dy="0.32em">1.0</text></g><g class="tick" opacity="1" transform="translate(0,40.01612903225803)"><line stroke="currentColor" x2="-6"></line><text fill="currentColor" x="-9" dy="0.32em">1.1</text></g><g class="tick" opacity="1" transform="translate(0,11.79032258064519)"><line stroke="currentColor" x2="-6"></line><text fill="currentColor" x="-9" dy="0.32em">1.2</text></g></g></g></svg>