<svg width="800" height="400"><rect width="800" height="400" fill="white"/><g transform="translate(80,20)"><rect width="136.65338645418325" height="350" fill="#6200FF" x="2.788844621513931" y="0"></rect><rect width="136.65338645418325" height="332.5" fill="#6200FF" x="142.23107569721114" y="17.500000000000014"></rect><rect width="136.65338645418325" height="325.5" fill="#6200FF" x="281.67330677290835" y="24.499999999999982"></rect><rect width="136.65338645418325" height="315" fill="#6200FF" x="421.1155378486055" y="34.99999999999999"></rect><rect width="136.65338645418325" height="262.5" fill="#6200FF" x="560.5577689243028" y="87.5"></rect><g transform="translate(0,350)" fill="none" font-size="10" font-family="sans-serif" text-anchor="middle"><path class="domain" stroke="currentColor" d="M0.5,6V0.5H700.5V6"></path><g class="tick" opacity="1" transform="translate(71.11553784860556,0)"><line stroke="currentColor" y2="6"></line><text fill="currentColor" y="9" dy="0.71em">vanillajs-1</text></g><g class="tick" opacity="1" transform="translate(210.55776892430276,0)"><line stroke="currentColor" y2="6"></line><text fill="currentColor" y="9" dy="0.71em">ivi-v3.0.0</text></g><g class="tick" opacity="1" transform="translate(350,0)"><line stroke="currentColor" y2="6"></line><text fill="currentColor" y="9" dy="0.71em">cample-v3.2.0-alpha.25</text></g><g class="tick" opacity="1" transform="translate(489.4422310756971,0)"><line stroke="currentColor" y2="6"></line><text fill="currentColor" y="9" dy="0.71em">inferno-v8.2.2</text></g><g class="tick" opacity="1" transform="translate(628.8844621513944,0)"><line stroke="currentColor" y2="6"></line><text fill="currentColor" y="9" dy="0.71em">vue-v3.4.21</text></g></g><g fill="none" font-size="10" font-family="sans-serif" text-anchor="end"><path class="domain" stroke="currentColor" d="M-6,350.5H0.5V0.5H-6"></path><g class="tick" opacity="1" transform="translate(0,350.5)"><line stroke="currentColor" x2="-6"></line><text fill="currentColor" x="-9" dy="0.32em">0%</text></g><g class="tick" opacity="1" transform="translate(0,315.5)"><line stroke="currentColor" x2="-6"></line><text fill="currentColor" x="-9" dy="0.32em">10%</text></g><g class="tick" opacity="1" transform="translate(0,280.5)"><line stroke="currentColor" x2="-6"></line><text fill="currentColor" x="-9" dy="0.32em">20%</text></g><g class="tick" opacity="1" transform="translate(0,245.49999999999997)"><line stroke="currentColor" x2="-6"></line><text fill="currentColor" x="-9" dy="0.32em">30%</text></g><g class="tick" opacity="1" transform="translate(0,210.5)"><line stroke="currentColor" x2="-6"></line><text fill="currentColor" x="-9" dy="0.32em">40%</text></g><g class="tick" opacity="1" transform="translate(0,175.5)"><line stroke="currentColor" x2="-6"></line><text fill="currentColor" x="-9" dy="0.32em">50%</text></g><g class="tick" opacity="1" transform="translate(0,140.5)"><line stroke="currentColor" x2="-6"></line><text fill="currentColor" x="-9" dy="0.32em">60%</text></g><g class="tick" opacity="1" transform="translate(0,105.50000000000001)"><line stroke="currentColor" x2="-6"></line><text fill="currentColor" x="-9" dy="0.32em">70%</text></g><g class="tick" opacity="1" transform="translate(0,70.49999999999999)"><line stroke="currentColor" x2="-6"></line><text fill="currentColor" x="-9" dy="0.32em">80%</text></g><g class="tick" opacity="1" transform="translate(0,35.49999999999999)"><line stroke="currentColor" x2="-6"></line><text fill="currentColor" x="-9" dy="0.32em">90%</text></g><g class="tick" opacity="1" transform="translate(0,0.5)"><line stroke="currentColor" x2="-6"></line><text fill="currentColor" x="-9" dy="0.32em">100%</text></g></g></g></svg>
